<?xml version="1.0" encoding="utf-8"?>
<!-- Generator: Adobe Illustrator 23.0.0, SVG Export Plug-In . SVG Version: 6.00 Build 0)  -->
<svg version="1.1" id="Capa_1" xmlns="http://www.w3.org/2000/svg" xmlns:xlink="http://www.w3.org/1999/xlink" x="0px" y="0px"
	 viewBox="0 0 570 669" style="enable-background:new 0 0 570 669;" xml:space="preserve">
<style type="text/css">
	.st0{fill:#FFFFFF;}
</style>
<path class="st0" d="M482.74,669H87.26C39.07,669,0,629.93,0,581.74V87.26C0,39.07,39.07,0,87.26,0h395.48
	C530.93,0,570,39.07,570,87.26v494.48C570,629.93,530.93,669,482.74,669z"/>
<g>
	<path d="M454.64,202.75c0,61.49-24.82,106.56-74.46,135.21c-37.29,21.24-57.54,42.73-60.75,64.46c-0.74,5.68-1.36,11.36-1.85,17.04
		c-1.73,5.19-6.18,7.78-13.34,7.78c-24.95,0-42.85,1.48-53.71,4.45c-2.22,0.74-3.95,1.11-5.19,1.11c-8.89,0-13.33-12.1-13.33-36.3
		c0-20.99,12.16-46.98,36.49-77.98c24.32-30.99,36.49-56.98,36.49-77.98c0-31.86-16.92-47.79-50.75-47.79
		c-21.49,0-49.4,8.4-83.72,25.19c-10.62,0-15.93-31.49-15.93-94.46c0-6.91,0.37-12.1,1.11-15.56c3.46-16.54,24.08-29.39,61.86-38.53
		c27.41-6.67,53.84-10,79.27-10c44.7,0,81.74,12.47,111.13,37.41C439.08,123.23,454.64,158.55,454.64,202.75z M354.25,521.32
		c0,19.02-6.61,35.44-19.82,49.27c-13.22,13.83-29.33,20.74-48.34,20.74c-19.02,0-35.13-6.92-48.34-20.74
		c-13.21-13.83-19.82-30.25-19.82-49.27c0-19.01,6.6-35.25,19.82-48.71c13.21-13.46,29.32-20.19,48.34-20.19
		c19.01,0,35.13,6.73,48.34,20.19C347.64,486.07,354.25,502.31,354.25,521.32z"/>
</g>
</svg>
